<?xml version="1.0" encoding="utf-8"?>
<!-- Generator: Adobe Illustrator 15.0.0, SVG Export Plug-In . SVG Version: 6.00 Build 0)  -->
<!DOCTYPE svg PUBLIC "-//W3C//DTD SVG 1.1//EN" "http://www.w3.org/Graphics/SVG/1.1/DTD/svg11.dtd">
<svg version="1.1" id="Layer_1" xmlns="http://www.w3.org/2000/svg" xmlns:xlink="http://www.w3.org/1999/xlink" x="0px" y="0px"
	 width="60px" height="60px" viewBox="0 0 60 60" enable-background="new 0 0 60 60" xml:space="preserve">
<g>
	<path fill="#0072BC" d="M15.782,9.802c-0.229,0-0.446-0.09-0.608-0.252L14.524,8.9c-0.77-0.77-1.194-1.793-1.194-2.881
		s0.425-2.112,1.194-2.881l1.945-1.946c1.589-1.588,4.175-1.589,5.763,0l0.65,0.65c0.336,0.335,0.336,0.88,0,1.216L16.389,9.55
		C16.228,9.711,16.009,9.802,15.782,9.802z M19.351,1.719c-0.604,0-1.206,0.229-1.665,0.688L15.74,4.354
		c-0.445,0.445-0.69,1.036-0.69,1.666c0,0.629,0.245,1.22,0.69,1.666l0.042,0.042l5.276-5.277l-0.042-0.042
		C20.557,1.948,19.955,1.719,19.351,1.719z"/>
</g>
<g>
	<path fill="#0072BC" d="M43.262,35.613c-0.219,0-0.439-0.084-0.607-0.252l-3.125-3.125c-0.336-0.336-0.336-0.88,0-1.216
		l4.822-4.824c0.324-0.323,0.895-0.323,1.217,0l3.127,3.126c0.16,0.161,0.252,0.38,0.252,0.608s-0.092,0.447-0.252,0.608
		l-4.824,4.822C43.703,35.529,43.482,35.613,43.262,35.613z M41.352,31.629l1.91,1.91l3.609-3.608l-1.91-1.91L41.352,31.629z"/>
</g>
<g>
	<path fill="#0072BC" d="M18.364,51.617c-0.08,0-0.158-0.012-0.236-0.033c-0.581-0.166-1.105-0.34-1.604-0.533
		c-2.687-1.043-5.062-2.512-7.058-4.367c-3.551-3.297-5.921-7.666-6.674-12.305c-1.188-7.305,1.469-14.811,6.931-19.587
		c1.725-1.508,3.72-2.74,5.93-3.661c0.322-0.135,0.693-0.061,0.938,0.186l5.149,5.148c0.219,0.22,0.304,0.541,0.22,0.839
		c-0.084,0.299-0.322,0.53-0.624,0.604c-4.2,1.025-7.637,4.032-8.97,7.848c-1.069,3.06-1.017,6.124,0.156,9.105
		c1.333,3.393,4.422,6.102,8.061,7.072c0.296,0.078,0.527,0.307,0.608,0.604c0.08,0.293-0.001,0.609-0.215,0.828
		c-1.131,1.154-1.754,2.676-1.754,4.287v3.105c0,0.27-0.126,0.523-0.342,0.686C18.731,51.557,18.548,51.617,18.364,51.617z
		 M15.789,12.946c-1.828,0.82-3.486,1.875-4.934,3.141C5.835,20.476,3.397,27.38,4.49,34.104c0.691,4.262,2.875,8.281,6.146,11.32
		c1.837,1.705,4.027,3.059,6.511,4.023c0.117,0.047,0.235,0.09,0.356,0.133v-1.928c0-1.611,0.486-3.154,1.39-4.457
		c-3.607-1.348-6.597-4.209-7.972-7.705c-1.326-3.375-1.387-6.841-0.178-10.302c1.367-3.917,4.655-7.082,8.761-8.527L15.789,12.946z
		"/>
</g>
<g>
	<path fill="#0072BC" d="M37.924,34.723c-0.221,0-0.439-0.084-0.607-0.252L13.783,10.94c-0.335-0.335-0.335-0.88,0-1.216
		l9.273-9.273c0.336-0.336,0.88-0.336,1.216,0l23.533,23.532c0.162,0.161,0.252,0.38,0.252,0.608s-0.09,0.447-0.252,0.608
		l-9.273,9.271C38.363,34.639,38.145,34.723,37.924,34.723z M15.607,10.332l22.317,22.316l8.057-8.057L23.664,2.275L15.607,10.332z"
		/>
</g>
<g>
	<path fill="#0072BC" d="M18.364,58.746H0.86c-0.475,0-0.86-0.385-0.86-0.859v-5.848c0-0.477,0.386-0.861,0.86-0.861h17.504
		c0.475,0,0.859,0.385,0.859,0.861v5.848C19.223,58.361,18.838,58.746,18.364,58.746z M1.719,57.027h15.784v-4.129H1.719V57.027z"/>
</g>
<g>
	<path fill="#0072BC" d="M59.141,58.746H32.342c-0.475,0-0.859-0.385-0.859-0.859v-5.848c0-0.477,0.385-0.861,0.859-0.861h26.799
		c0.475,0,0.859,0.385,0.859,0.861v5.848C60,58.361,59.615,58.746,59.141,58.746z M33.203,57.027h25.078v-4.129H33.203V57.027z"/>
</g>
<g>
	<path fill="#0072BC" d="M32.342,58.746H18.364c-0.476,0-0.86-0.385-0.86-0.859V47.652c0-2.062,0.798-4.014,2.245-5.49
		c1.489-1.521,3.479-2.359,5.604-2.359c4.328,0,7.85,3.521,7.85,7.85v10.234C33.203,58.361,32.818,58.746,32.342,58.746z
		 M19.223,57.027h12.259v-9.375c0-3.379-2.75-6.129-6.129-6.129c-1.658,0-3.213,0.654-4.376,1.842
		c-1.131,1.154-1.754,2.676-1.754,4.287V57.027z"/>
</g>
<g>
	<path fill="#0072BC" d="M48.34,52.898h-6.578c-0.475,0-0.859-0.385-0.859-0.859v-9.338c0-0.377,0.246-0.711,0.607-0.822
		l6.576-2.027c0.262-0.08,0.545-0.031,0.766,0.131c0.219,0.162,0.348,0.418,0.348,0.691v11.365
		C49.199,52.514,48.814,52.898,48.34,52.898z M42.621,51.178h4.859v-9.34l-4.859,1.498V51.178z"/>
</g>
<g>
	<path fill="#0072BC" d="M34.229,45.881c-0.367,0-0.707-0.236-0.82-0.607l-0.969-3.143c-0.068-0.219-0.045-0.453,0.061-0.654
		c0.107-0.203,0.291-0.354,0.508-0.42l20.924-6.447c0.451-0.139,0.934,0.115,1.074,0.568l0.969,3.145
		c0.139,0.453-0.115,0.936-0.568,1.074l-20.924,6.445C34.398,45.869,34.312,45.881,34.229,45.881z M34.336,42.445l0.463,1.5
		l19.279-5.939l-0.463-1.5L34.336,42.445z"/>
</g>
<g>
	<path fill="#0072BC" d="M25.303,52.199c-1.941,0-3.521-1.58-3.521-3.521c0-0.475,0.385-0.859,0.859-0.859
		c0.476,0,0.86,0.385,0.86,0.859c0,0.992,0.809,1.801,1.802,1.801s1.801-0.809,1.801-1.801c0-0.994-0.808-1.803-1.801-1.803
		c-0.476,0-0.86-0.383-0.86-0.859c0-0.475,0.385-0.859,0.86-0.859c1.941,0,3.521,1.58,3.521,3.521S27.245,52.199,25.303,52.199z"/>
</g>
</svg>
