<?xml version="1.0" encoding="utf-8"?>
<!-- Generator: Adobe Illustrator 15.0.0, SVG Export Plug-In . SVG Version: 6.00 Build 0)  -->
<!DOCTYPE svg PUBLIC "-//W3C//DTD SVG 1.1//EN" "http://www.w3.org/Graphics/SVG/1.1/DTD/svg11.dtd">
<svg version="1.1" id="Layer_1" xmlns="http://www.w3.org/2000/svg" xmlns:xlink="http://www.w3.org/1999/xlink" x="0px" y="0px"
	 width="60px" height="60px" viewBox="0 0 60 60" enable-background="new 0 0 60 60" xml:space="preserve">
<g>
	<path fill="#0072BC" d="M15.509,28.935c-0.224,0-0.447-0.085-0.618-0.256c-0.341-0.341-0.341-0.895,0-1.236
		c0.722-0.721,1.503-0.713,2.025-0.707c0.429,0.001,0.577-0.003,0.77-0.196s0.201-0.339,0.196-0.77
		c-0.006-0.519-0.014-1.303,0.708-2.025c0.722-0.722,1.502-0.713,2.025-0.708c0.429,0.006,0.576-0.003,0.769-0.195
		c0.193-0.193,0.201-0.339,0.196-0.77c-0.006-0.519-0.015-1.303,0.708-2.025c0.722-0.722,1.503-0.714,2.026-0.708
		c0.432,0.006,0.577-0.003,0.771-0.197c0.193-0.194,0.201-0.339,0.197-0.771c-0.005-0.519-0.014-1.303,0.709-2.026
		c0.723-0.723,1.505-0.714,2.026-0.709c0.43,0.004,0.578-0.003,0.771-0.197c0.342-0.341,0.895-0.341,1.236,0
		c0.341,0.341,0.341,0.895,0,1.236c-0.724,0.724-1.512,0.715-2.026,0.709c-0.436-0.004-0.578,0.004-0.772,0.197
		c-0.194,0.194-0.202,0.34-0.197,0.772c0.006,0.519,0.014,1.303-0.709,2.026c-0.722,0.722-1.505,0.714-2.026,0.708
		c-0.429-0.004-0.577,0.003-0.771,0.196c-0.193,0.193-0.201,0.338-0.196,0.77c0.006,0.519,0.015,1.303-0.708,2.025
		c-0.723,0.723-1.506,0.715-2.025,0.708c-0.426-0.006-0.576,0.002-0.769,0.195c-0.193,0.193-0.201,0.339-0.196,0.77
		c0.005,0.519,0.014,1.303-0.708,2.025c-0.723,0.723-1.515,0.714-2.025,0.708c-0.44-0.005-0.577,0.003-0.77,0.196
		C15.957,28.85,15.733,28.935,15.509,28.935z"/>
</g>
<g>
	<path fill="#0072BC" d="M49.686,59.995c-2.642,0-5.283-1.006-7.293-3.017L6.881,21.468c-0.341-0.341-0.341-0.895,0-1.236
		L20.232,6.881c0.328-0.328,0.908-0.328,1.236,0l35.511,35.512C58.928,44.34,60,46.93,60,49.686s-1.072,5.347-3.021,7.293l0,0
		C54.969,58.989,52.326,59.995,49.686,59.995z M8.735,20.85l34.893,34.893c3.34,3.34,8.774,3.338,12.114,0
		c3.34-3.341,3.34-8.775,0-12.115L20.85,8.735L8.735,20.85z M56.359,56.359h0.007H56.359z"/>
</g>
<g>
	<path fill="#0072BC" d="M5.505,23.717L5.505,23.717c-0.231,0-0.454-0.092-0.618-0.256l-4.632-4.632
		c-0.341-0.341-0.341-0.895,0-1.236L17.593,0.256c0.341-0.341,0.895-0.341,1.236,0l4.632,4.632c0.164,0.164,0.256,0.386,0.256,0.618
		s-0.092,0.454-0.256,0.618L6.124,23.461C5.959,23.625,5.737,23.717,5.505,23.717z M2.11,18.211l3.396,3.396L21.607,5.506
		L18.211,2.11L2.11,18.211z"/>
</g>
<g>
	<path fill="#0072BC" d="M10.647,52.634c-3.577,0-6.487-2.909-6.487-6.485c0-3.207,4.925-13.521,5.487-14.688
		c0.144-0.298,0.443-0.489,0.774-0.494c0.327,0.015,0.636,0.177,0.789,0.47c0.606,1.168,5.923,11.491,5.923,14.713
		C17.134,49.725,14.224,52.634,10.647,52.634z M10.466,33.825C8.73,37.578,5.909,44.107,5.909,46.146
		c0,2.612,2.125,4.738,4.738,4.738s4.739-2.126,4.739-4.738C15.386,44.268,12.683,38.25,10.466,33.825z"/>
</g>
</svg>
