<?xml version="1.0" encoding="utf-8"?>
<!-- Generator: Adobe Illustrator 15.0.0, SVG Export Plug-In . SVG Version: 6.00 Build 0)  -->
<!DOCTYPE svg PUBLIC "-//W3C//DTD SVG 1.1//EN" "http://www.w3.org/Graphics/SVG/1.1/DTD/svg11.dtd">
<svg version="1.1" id="Layer_1" xmlns="http://www.w3.org/2000/svg" xmlns:xlink="http://www.w3.org/1999/xlink" x="0px" y="0px"
	 width="60px" height="60px" viewBox="0 0 60 60" enable-background="new 0 0 60 60" xml:space="preserve">
<g>
	<path fill="#0072BC" d="M32.936,27h-5.921c-0.44,0-0.813-0.323-0.876-0.758c-0.264-1.815-0.404-3.863-0.404-5.924
		c0-6.361,1.327-13.208,4.241-13.208c2.916,0,4.241,6.847,4.241,13.208c0,2.061-0.139,4.109-0.403,5.924
		C33.748,26.677,33.375,27,32.936,27z M27.789,25.229h4.37c0.187-1.536,0.284-3.217,0.284-4.91c0-7.429-1.752-11.436-2.469-11.436
		s-2.47,4.007-2.47,11.436C27.504,22.011,27.603,23.693,27.789,25.229z"/>
</g>
<g>
	<path fill="#0072BC" d="M52.875,33.525H29.974c-2.417,0-3.442-4.563-3.837-7.283c-0.037-0.254,0.039-0.513,0.206-0.708
		c0.168-0.194,0.413-0.306,0.67-0.306h31.473c0.488,0,0.887,0.396,0.887,0.886v0.273C59.373,30.324,56.457,33.525,52.875,33.525z
		 M28.055,27c0.648,3.557,1.626,4.753,1.919,4.753h22.901c2.424,0,4.426-2.082,4.695-4.753H28.055z"/>
</g>
<g>
	<path fill="#0072BC" d="M7.302,35.802H3.486c-0.118,0-0.212-0.02-0.263-0.03C0.155,35.162,0,22.75,0,20.268
		S0.155,5.373,3.221,4.765c0.096-0.02,0.181-0.03,0.265-0.03h3.855c0.294,0,0.569,0.146,0.734,0.39
		C8.24,5.368,8.272,5.678,8.163,5.951c-1.455,3.613-2.29,8.85-2.29,14.367c0,5.46,0.821,10.663,2.252,14.27
		c0.108,0.273,0.075,0.583-0.09,0.825C7.87,35.656,7.596,35.802,7.302,35.802z M3.622,34.029h2.415
		C4.8,30.324,4.102,25.416,4.102,20.318c0-5.151,0.71-10.095,1.968-13.812H3.622c-0.655,0.678-1.85,5.343-1.85,13.762
		S2.967,33.352,3.622,34.029z"/>
</g>
<g>
	<path fill="none" d="M39.938,49.127c-0.059-0.373-0.114-0.746-0.168-1.127C39.822,48.381,39.879,48.754,39.938,49.127z"/>
</g>
<g>
	<path fill="none" d="M39.389,44.621c0.096,1.062,0.211,2.104,0.348,3.121c-0.051-0.385-0.102-0.768-0.146-1.158
		C39.514,45.939,39.448,45.283,39.389,44.621z"/>
</g>
<g>
	<path fill="none" d="M40.18,50.587c-0.07-0.397-0.14-0.798-0.205-1.205C40.04,49.789,40.107,50.189,40.18,50.587z"/>
</g>
<g>
	<path fill="none" d="M39.348,44.152c-0.057-0.67-0.107-1.344-0.146-2.029C39.238,42.809,39.291,43.482,39.348,44.152z"/>
</g>
<g>
	<path fill="none" d="M39.2,42.121c-0.039-0.678-0.066-1.364-0.089-2.055C39.134,40.757,39.161,41.443,39.2,42.121z"/>
</g>
<g>
	<path fill="none" d="M39.098,36.746c-0.02-0.748-0.031-1.502-0.031-2.264C39.066,35.244,39.078,35.998,39.098,36.746z"/>
</g>
<g>
	<path fill="none" d="M40.447,51.992c-0.086-0.418-0.166-0.84-0.244-1.268C40.281,51.152,40.361,51.574,40.447,51.992z"/>
</g>
<g>
	<path fill="#0072BC" d="M23.736,30.783c-0.421,0-0.791-0.293-0.865-0.722c-0.001-0.002-0.005-0.034-0.006-0.037
		c-0.008-0.048-0.012-0.097-0.012-0.144c0-0.426,0.297-0.819,0.726-0.896c0.48-0.087,0.928,0.201,1.021,0.675
		c0.002,0.009,0.013,0.071,0.014,0.081c0.008,0.048,0.012,0.097,0.012,0.145c0,0.427-0.305,0.813-0.738,0.887
		C23.837,30.777,23.786,30.783,23.736,30.783z"/>
</g>
<g>
	<path fill="#0072BC" d="M23.595,29.977c-0.426,0-0.796-0.291-0.862-0.727c0-0.001-0.008-0.059-0.008-0.061l-0.012-0.08
		c-0.008-0.048-0.012-0.096-0.012-0.144c0-0.426,0.31-0.802,0.745-0.873c0.48-0.073,0.938,0.249,1.016,0.732l0.017,0.109
		c0.006,0.043,0.009,0.087,0.009,0.13c0.001,0.436-0.312,0.836-0.752,0.902C23.688,29.973,23.642,29.977,23.595,29.977z"/>
</g>
<g>
	<path fill="#0072BC" d="M23.487,29.188c-0.436,0-0.815-0.321-0.876-0.766l-0.02-0.153c-0.005-0.041-0.008-0.081-0.008-0.121
		c0-0.436,0.321-0.816,0.765-0.877c0.484-0.065,0.932,0.272,0.999,0.758l0.02,0.153c0.005,0.04,0.008,0.081,0.008,0.121
		c0,0.436-0.321,0.815-0.766,0.876C23.568,29.185,23.528,29.188,23.487,29.188z"/>
</g>
<g>
	<path fill="#0072BC" d="M23.152,25.716c-0.489,0-0.886-0.396-0.886-0.885V24.83c0-0.49,0.397-0.886,0.886-0.886
		c0.489,0,0.886,0.396,0.886,0.886C24.038,25.318,23.642,25.716,23.152,25.716z"/>
</g>
<g>
	<path fill="#0072BC" d="M23.099,24.501c-0.475,0-0.869-0.377-0.885-0.856l-0.009-0.316c-0.011-0.489,0.377-0.895,0.866-0.906
		c0.487-0.013,0.896,0.377,0.906,0.866l0.008,0.295c0,0.011,0,0.021,0,0.032c0,0.475-0.377,0.868-0.856,0.884
		C23.12,24.501,23.109,24.501,23.099,24.501z"/>
</g>
<g>
	<path fill="#0072BC" d="M23.262,27.192c-0.454,0-0.841-0.348-0.881-0.808l-0.024-0.278c-0.002-0.026-0.003-0.052-0.003-0.078
		c0-0.455,0.348-0.841,0.809-0.882c0.478-0.042,0.917,0.318,0.959,0.806l0.024,0.276c0.002,0.026,0.003,0.052,0.003,0.078
		c0,0.455-0.347,0.841-0.809,0.882C23.314,27.191,23.288,27.192,23.262,27.192z"/>
</g>
<g>
	<path fill="#0072BC" d="M52.188,46.797H11.353c-0.489,0-0.886-0.396-0.886-0.887v-6.107c0-0.268,0.121-0.521,0.33-0.688
		c0.208-0.169,0.482-0.232,0.744-0.177c0.063,0.015,0.126,0.025,0.19,0.031c0.073,0.008,0.115,0.014,0.157,0.014h18.086
		c1.613,0,3.338-2.523,4.504-6.586c0.108-0.381,0.457-0.643,0.853-0.643h16.854c0.489,0,0.887,0.396,0.887,0.887v13.27
		C53.072,46.398,52.676,46.797,52.188,46.797z M12.239,45.023h39.062V33.525H35.99c-1.454,4.668-3.578,7.229-6.016,7.229H12.239
		V45.023z"/>
</g>
<g>
	<path fill="#0072BC" d="M29.974,40.754c-0.173,0-0.344-0.016-0.515-0.041c-0.05-0.009-0.097-0.018-0.143-0.029
		c-0.136-0.029-0.249-0.055-0.36-0.088c-0.053-0.018-0.102-0.033-0.151-0.055c-0.135-0.049-0.235-0.088-0.334-0.135
		c-0.055-0.025-0.111-0.055-0.168-0.086c-0.109-0.057-0.204-0.109-0.296-0.168c-0.058-0.037-0.115-0.074-0.17-0.112
		c-0.092-0.062-0.183-0.132-0.274-0.203c-0.071-0.056-0.113-0.09-0.155-0.126c-0.093-0.078-0.19-0.168-0.286-0.262l-0.108-0.104
		c-0.129-0.133-0.252-0.267-0.373-0.408c-0.144-0.172-0.271-0.336-0.396-0.508c-0.129-0.181-0.242-0.347-0.352-0.519l-0.056-0.091
		c-0.104-0.168-0.193-0.317-0.281-0.473l-0.057-0.104c-0.106-0.191-0.188-0.347-0.269-0.507l-0.078-0.157
		c-0.08-0.164-0.16-0.333-0.238-0.506L24.85,35.93c-0.084-0.193-0.167-0.389-0.247-0.589l-0.042-0.103
		c-0.289-0.729-0.557-1.523-0.795-2.355c-0.283-0.984-0.533-2.045-0.743-3.154c-0.056-0.293-0.105-0.566-0.151-0.844
		c-0.001,0-0.015-0.088-0.015-0.089c-0.042-0.257-0.084-0.516-0.124-0.779l-0.022-0.161c-0.035-0.246-0.069-0.487-0.101-0.732
		l-0.02-0.166c-0.031-0.249-0.061-0.497-0.089-0.749c-0.045-0.416-0.084-0.839-0.121-1.266l-0.024-0.3
		c-0.034-0.435-0.064-0.869-0.088-1.31c-0.023-0.438-0.04-0.881-0.053-1.326l-0.009-0.336c-0.011-0.446-0.018-0.898-0.018-1.355
		c0-9.907,2.729-20.436,7.787-20.436s7.787,10.529,7.787,20.436c0,2.008-0.104,3.99-0.312,5.893C37.398,26.66,37.02,27,36.566,27
		h-3.631c-0.259,0-0.502-0.112-0.672-0.306c-0.168-0.195-0.242-0.453-0.205-0.707c0.252-1.732,0.385-3.692,0.385-5.669
		c0-7.429-1.752-11.436-2.469-11.436s-2.47,4.007-2.47,11.436c0,1.977,0.133,3.937,0.385,5.669c0.632,4.347,1.765,5.767,2.084,5.767
		h5.357c0.277,0,0.54,0.131,0.708,0.354c0.166,0.222,0.22,0.511,0.144,0.777C34.727,37.959,32.521,40.754,29.974,40.754z
		 M29.974,1.654c-2.845,0-6.015,7.665-6.015,18.664c0,0.442,0.007,0.879,0.018,1.314l0.008,0.322
		c0.013,0.432,0.029,0.86,0.052,1.283c0.023,0.429,0.052,0.85,0.084,1.268l0.024,0.293c0.035,0.41,0.072,0.818,0.117,1.22
		c0.026,0.243,0.055,0.481,0.085,0.72l0.02,0.163c0.03,0.235,0.062,0.468,0.096,0.7l0.015,0.107
		c0.045,0.302,0.084,0.552,0.125,0.798c0,0.005,0.01,0.064,0.011,0.068c0.048,0.283,0.094,0.544,0.144,0.803
		c0.205,1.078,0.442,2.086,0.709,3.02c0.224,0.777,0.473,1.517,0.741,2.193l0.039,0.096c0.072,0.179,0.147,0.357,0.223,0.531
		l0.042,0.096c0.086,0.19,0.158,0.344,0.229,0.489L26.79,35.9c0.09,0.182,0.163,0.316,0.235,0.449L27.1,36.48
		c0.073,0.127,0.149,0.256,0.228,0.381c0,0,0.059,0.096,0.06,0.098c0.092,0.145,0.185,0.281,0.279,0.412
		c0.112,0.156,0.214,0.287,0.318,0.41c0.103,0.121,0.196,0.223,0.29,0.318c0.003,0.002,0.079,0.073,0.082,0.075
		c0.068,0.066,0.135,0.132,0.204,0.188l0.072,0.059c0.089,0.072,0.149,0.117,0.211,0.158l0.109,0.072
		c0.054,0.033,0.11,0.064,0.167,0.096l0.101,0.052c0.056,0.025,0.11,0.046,0.166,0.067l-0.167,0.881l0.261-0.848
		c0.057,0.02,0.116,0.031,0.173,0.043c0.008,0.002,0.067,0.015,0.076,0.017c1.534,0.257,3.189-1.847,4.4-5.435h-4.153
		c-2.417,0-3.442-4.563-3.837-7.283c-0.264-1.815-0.404-3.863-0.404-5.924c0-6.361,1.327-13.208,4.241-13.208
		c2.916,0,4.241,6.847,4.241,13.208c0,1.685-0.093,3.362-0.271,4.91h1.822c0.147-1.595,0.223-3.243,0.223-4.91
		C35.988,9.319,32.818,1.654,29.974,1.654z"/>
</g>
<g>
	<path fill="#0072BC" d="M29.974,40.754H11.888c-0.102,0-0.204-0.01-0.304-0.02c-0.162-0.017-0.29-0.037-0.419-0.066
		c-1.815-0.395-3.436-2.271-4.686-5.426c-1.511-3.809-2.377-9.249-2.377-14.924c0-5.736,0.881-11.214,2.417-15.029
		C7.86,1.961,9.601,0.1,11.553-0.096c0.126-0.013,0.231-0.022,0.335-0.022h18.086c0.489,0,0.885,0.396,0.885,0.886
		c0,0.49-0.396,0.886-0.885,0.886c-2.845,0-6.015,7.665-6.015,18.664c0,0.442,0.007,0.879,0.018,1.314l0.008,0.322
		c0.013,0.432,0.029,0.86,0.052,1.283c0.022,0.429,0.052,0.85,0.084,1.268l0.024,0.293c0.057,0.673,0.125,1.326,0.202,1.94
		l0.02,0.162c0.03,0.235,0.062,0.468,0.096,0.7l0.015,0.107c0.045,0.302,0.084,0.552,0.125,0.798c0,0.005,0.01,0.064,0.011,0.068
		c0.048,0.283,0.094,0.544,0.144,0.803c0.205,1.078,0.442,2.085,0.709,3.019c0.225,0.785,0.474,1.522,0.741,2.194l0.039,0.097
		c0.072,0.178,0.147,0.356,0.223,0.53l0.042,0.097c0.086,0.188,0.157,0.342,0.229,0.488l0.049,0.1
		c0.09,0.18,0.162,0.314,0.235,0.447L27.1,36.48c0.073,0.127,0.149,0.256,0.228,0.381l0.06,0.098c0.091,0.143,0.184,0.28,0.278,0.41
		c0.114,0.158,0.215,0.289,0.319,0.412c0.104,0.121,0.197,0.223,0.29,0.318c0.003,0.004,0.078,0.073,0.082,0.075
		c0.068,0.066,0.135,0.132,0.204,0.188l0.072,0.059c0.089,0.072,0.149,0.117,0.211,0.158l0.109,0.072
		c0.054,0.033,0.11,0.064,0.167,0.096l0.101,0.052c0.056,0.025,0.11,0.046,0.166,0.067l-0.021,0.115h0.092l0.024-0.082
		c0.057,0.02,0.116,0.031,0.173,0.043l0,0c0.018,0.004,0.066,0.015,0.076,0.017c0.082,0.015,0.165,0.022,0.248,0.022
		c0.489,0,0.886,0.396,0.886,0.886C30.865,40.357,30.463,40.754,29.974,40.754z M11.888,1.654c-0.043,0-0.087,0.006-0.13,0.011
		C10.51,1.79,9.21,3.351,8.163,5.951c-1.455,3.613-2.29,8.85-2.29,14.367c0,5.46,0.821,10.663,2.252,14.271
		c0.994,2.507,2.239,4.093,3.416,4.349c0.062,0.014,0.125,0.024,0.189,0.03c0.073,0.009,0.115,0.015,0.157,0.015H26.68
		c-0.013-0.017-0.026-0.03-0.039-0.045c-0.144-0.172-0.271-0.334-0.396-0.508c-0.129-0.179-0.241-0.345-0.352-0.519l-0.055-0.091
		c-0.104-0.168-0.194-0.317-0.282-0.473l-0.057-0.104c-0.105-0.191-0.187-0.347-0.268-0.504l-0.079-0.16
		c-0.08-0.164-0.159-0.33-0.236-0.502l-0.065-0.146c-0.084-0.195-0.167-0.39-0.247-0.59l-0.042-0.103
		c-0.287-0.724-0.555-1.519-0.795-2.355c-0.283-0.985-0.533-2.047-0.743-3.154c-0.056-0.293-0.105-0.566-0.151-0.844
		c-0.001,0-0.015-0.088-0.015-0.089c-0.042-0.257-0.084-0.516-0.124-0.779l-0.022-0.161c-0.035-0.246-0.069-0.487-0.101-0.732
		l-0.02-0.166c-0.08-0.639-0.15-1.316-0.21-2.015l-0.024-0.3c-0.034-0.435-0.065-0.87-0.088-1.312
		c-0.023-0.437-0.04-0.879-0.053-1.324l-0.009-0.336c-0.011-0.446-0.018-0.898-0.018-1.355c0-7.451,1.543-15.253,4.46-18.664
		L11.888,1.654L11.888,1.654z"/>
</g>
<g>
	<path fill="#0072BC" d="M20.089,50.425h-5.503c-0.489,0-0.886-0.396-0.886-0.886V45.91c0-0.488,0.397-0.887,0.886-0.887h5.503
		c0.489,0,0.886,0.397,0.886,0.887v3.629C20.976,50.027,20.579,50.425,20.089,50.425z M15.473,48.652h3.731v-1.855h-3.731V48.652z"
		/>
</g>
<g>
	<path fill="#0072BC" d="M48.953,50.425h-5.504c-0.488,0-0.887-0.396-0.887-0.886V45.91c0-0.488,0.397-0.887,0.887-0.887h5.504
		c0.488,0,0.885,0.397,0.885,0.887v3.629C49.838,50.027,49.441,50.425,48.953,50.425z M44.336,48.652h3.73v-1.855h-3.73V48.652z"/>
</g>
<g>
	<path fill="#0072BC" d="M59.113,59.721H1.201c-0.489,0-0.886-0.397-0.886-0.888v-9.294c0-0.489,0.397-0.887,0.886-0.887h57.912
		c0.49,0,0.887,0.396,0.887,0.887v9.294C60,59.322,59.604,59.721,59.113,59.721z M2.087,57.947h56.142v-7.522H2.087V57.947z"/>
</g>
</svg>
