<?xml version="1.0" encoding="utf-8"?>
<!-- Generator: Adobe Illustrator 15.0.0, SVG Export Plug-In . SVG Version: 6.00 Build 0)  -->
<!DOCTYPE svg PUBLIC "-//W3C//DTD SVG 1.1//EN" "http://www.w3.org/Graphics/SVG/1.1/DTD/svg11.dtd">
<svg version="1.1" id="Layer_1" xmlns="http://www.w3.org/2000/svg" xmlns:xlink="http://www.w3.org/1999/xlink" x="0px" y="0px"
	 width="60px" height="60px" viewBox="0 0 60 60" enable-background="new 0 0 60 60" xml:space="preserve">
<g>
	<path fill="#0072BC" d="M11.651,35.792C5.227,35.792,0,30.564,0,24.141V8.571c0-3.556,2.894-6.45,6.45-6.45
		c0.486,0,0.88,0.394,0.88,0.88s-0.394,0.88-0.88,0.88c-2.585,0-4.689,2.104-4.689,4.689v15.569c0,5.454,4.438,9.89,9.891,9.89
		c5.454,0,9.891-4.437,9.891-9.89V8.571c0-2.585-2.104-4.689-4.689-4.689c-0.486,0-0.88-0.394-0.88-0.88s0.394-0.88,0.88-0.88
		c3.556,0,6.45,2.894,6.45,6.45v15.569C23.303,30.564,18.076,35.792,11.651,35.792z"/>
</g>
<g>
	<path fill="#0072BC" d="M6.738,5.92c-0.486,0-0.88-0.394-0.88-0.88V1.373c0-0.486,0.394-0.88,0.88-0.88
		c0.486,0,0.88,0.394,0.88,0.88V5.04C7.619,5.526,7.225,5.92,6.738,5.92z"/>
</g>
<g>
	<path fill="#0072BC" d="M16.518,5.92c-0.486,0-0.88-0.394-0.88-0.88V1.373c0-0.486,0.394-0.88,0.88-0.88s0.88,0.394,0.88,0.88V5.04
		C17.398,5.526,17.004,5.92,16.518,5.92z"/>
</g>
<g>
	<path fill="#0072BC" d="M21.564,59.508c-5.951,0-10.793-4.843-10.793-10.795V34.912c0-0.486,0.394-0.881,0.88-0.881
		c0.486,0,0.88,0.395,0.88,0.881v13.801c0,4.982,4.052,9.034,9.032,9.034s9.033-4.052,9.033-9.034V12.587
		c0-5.952,4.842-10.793,10.793-10.793s10.793,4.842,10.793,10.793v21.022c0,0.488-0.395,0.881-0.881,0.881s-0.881-0.393-0.881-0.881
		V12.587c0-4.98-4.051-9.033-9.031-9.033c-4.979,0-9.033,4.052-9.033,9.033v36.126C32.357,54.665,27.516,59.508,21.564,59.508z"/>
</g>
<g>
	<path fill="#0072BC" d="M51.303,50.878c-4.797,0-8.697-3.899-8.697-8.696c0-4.796,3.9-8.697,8.697-8.697
		c4.795,0,8.697,3.901,8.697,8.697C60,46.979,56.098,50.878,51.303,50.878z M51.303,35.246c-3.824,0-6.936,3.111-6.936,6.936
		c0,3.825,3.111,6.937,6.936,6.937c3.825,0,6.936-3.111,6.936-6.937C58.238,38.357,55.127,35.246,51.303,35.246z"/>
</g>
<g>
	<path fill="#0072BC" d="M51.303,46.828c-2.562,0-4.646-2.085-4.646-4.646c0-0.486,0.395-0.881,0.881-0.881
		c0.485,0,0.879,0.395,0.879,0.881c0,1.592,1.295,2.887,2.888,2.887c1.59,0,2.885-1.295,2.885-2.887
		c0-1.591-1.295-2.886-2.885-2.886c-0.486,0-0.882-0.394-0.882-0.88s0.396-0.881,0.882-0.881c2.562,0,4.646,2.084,4.646,4.646
		C55.949,44.743,53.865,46.828,51.303,46.828z"/>
</g>
</svg>
