<?xml version="1.0" encoding="utf-8"?>
<!-- Generator: Adobe Illustrator 15.0.0, SVG Export Plug-In . SVG Version: 6.00 Build 0)  -->
<!DOCTYPE svg PUBLIC "-//W3C//DTD SVG 1.1//EN" "http://www.w3.org/Graphics/SVG/1.1/DTD/svg11.dtd">
<svg version="1.1" id="Layer_1" xmlns="http://www.w3.org/2000/svg" xmlns:xlink="http://www.w3.org/1999/xlink" x="0px" y="0px"
	 width="60px" height="60px" viewBox="0 0 60 60" enable-background="new 0 0 60 60" xml:space="preserve">
<g>
	<path fill="#0072BC" d="M36.501,41.94c-1.938,0-3.709-0.998-4.755-2.544c-1.044,1.546-2.815,2.544-4.754,2.544
		c-2.982,0-5.439-2.288-5.709-5.201c-2.767-0.406-4.898-2.796-4.898-5.674c0-0.594,0.092-1.175,0.272-1.737
		c-1.528-1.064-2.449-2.801-2.449-4.696c0-1.994,1.024-3.811,2.673-4.85c-0.326-0.73-0.496-1.521-0.496-2.332
		c0-2.92,2.194-5.337,5.021-5.69c0.588-2.576,2.873-4.438,5.586-4.438c1.938,0,3.71,0.998,4.754,2.543
		c1.046-1.545,2.817-2.543,4.755-2.543c2.715,0,5,1.864,5.587,4.441c2.836,0.36,5.021,2.773,5.021,5.687
		c0,0.809-0.169,1.601-0.496,2.332c1.649,1.039,2.674,2.856,2.674,4.85c0,1.895-0.922,3.632-2.45,4.696
		c0.182,0.562,0.272,1.144,0.272,1.737c0,2.878-2.132,5.268-4.898,5.674C41.94,39.652,39.483,41.94,36.501,41.94z M31.746,36.4
		c0.404,0,0.754,0.279,0.841,0.674c0.401,1.822,2.049,3.146,3.914,3.146c2.213,0,4.013-1.8,4.013-4.013
		c0-0.043-0.003-0.085-0.006-0.128l-0.006-0.096c-0.013-0.235,0.072-0.466,0.234-0.638c0.172-0.181,0.396-0.274,0.665-0.267
		c2.2-0.015,3.986-1.81,3.986-4.014c0-0.597-0.133-1.178-0.396-1.727c-0.2-0.42-0.03-0.924,0.384-1.136
		c1.351-0.691,2.189-2.06,2.189-3.571c0-1.62-0.966-3.073-2.46-3.701c-0.236-0.099-0.416-0.299-0.49-0.544
		c-0.074-0.246-0.035-0.511,0.105-0.724c0.437-0.659,0.667-1.423,0.667-2.212c0-2.213-1.8-4.014-4.014-4.014
		c-0.442,0-0.837-0.335-0.88-0.775c-0.201-2.062-1.918-3.618-3.993-3.618c-1.865,0-3.512,1.322-3.914,3.144
		c-0.087,0.395-0.437,0.675-0.841,0.675c-0.403,0-0.752-0.281-0.84-0.675c-0.402-1.822-2.049-3.144-3.914-3.144
		c-2.074,0-3.791,1.555-3.993,3.618c-0.045,0.461-0.464,0.81-0.929,0.774c-2.164,0.001-3.965,1.802-3.965,4.015
		c0,0.789,0.23,1.554,0.666,2.212c0.142,0.214,0.181,0.479,0.106,0.725c-0.073,0.245-0.253,0.445-0.489,0.544
		c-1.495,0.628-2.46,2.081-2.46,3.701c0,1.511,0.838,2.879,2.188,3.571c0.415,0.212,0.586,0.716,0.385,1.136
		c-0.263,0.549-0.396,1.129-0.396,1.727c0,2.204,1.786,3.999,3.986,4.014c0.264-0.013,0.493,0.086,0.664,0.267
		c0.163,0.172,0.248,0.402,0.235,0.638l-0.006,0.096c-0.003,0.043-0.006,0.085-0.006,0.128c0,2.213,1.8,4.013,4.013,4.013
		c1.866,0,3.512-1.323,3.914-3.146C30.994,36.68,31.343,36.4,31.746,36.4z"/>
</g>
<g>
	<path fill="#0072BC" d="M43.483,60H22.586c-0.475,0-0.86-0.385-0.86-0.86v-5.306h-3.324c-4.185,0-7.589-3.404-7.589-7.588v-5.717
		c0-0.799-0.65-1.459-1.45-1.472L7.27,39.025c-0.759,0.025-1.479-0.312-1.925-0.932c-0.454-0.631-0.55-1.438-0.258-2.156l3.575-8.82
		c-0.02-0.885-0.03-1.774-0.03-2.662C8.632,10.971,19.02,0,31.785,0c6.648,0,13.311,3.037,17.823,8.124
		c4.146,4.673,6.036,10.509,5.325,16.434c-0.943,7.856-4.506,14.499-10.59,19.749V59.14C44.344,59.615,43.958,60,43.483,60z
		 M23.446,58.279h19.177V43.91c0-0.253,0.112-0.493,0.306-0.656c5.927-5.002,9.391-11.361,10.297-18.901
		c0.651-5.429-1.09-10.787-4.904-15.087C44.13,4.541,37.948,1.721,31.785,1.721c-11.817,0-21.433,10.198-21.433,22.734
		c0,0.935,0.012,1.869,0.034,2.799c0.003,0.118-0.019,0.234-0.063,0.344l-3.643,8.986c-0.099,0.242,0.01,0.434,0.061,0.504
		c0.051,0.071,0.204,0.234,0.46,0.219c0.021-0.002,0.043-0.003,0.065-0.002l2.123,0.033c1.733,0.026,3.144,1.459,3.144,3.191v5.717
		c0,3.235,2.632,5.867,5.868,5.867h4.185c0.476,0,0.86,0.386,0.86,0.861V58.279z"/>
</g>
</svg>
