<?xml version="1.0" encoding="utf-8"?>
<!-- Generator: Adobe Illustrator 15.0.0, SVG Export Plug-In . SVG Version: 6.00 Build 0)  -->
<!DOCTYPE svg PUBLIC "-//W3C//DTD SVG 1.1//EN" "http://www.w3.org/Graphics/SVG/1.1/DTD/svg11.dtd">
<svg version="1.1" id="Layer_1" xmlns="http://www.w3.org/2000/svg" xmlns:xlink="http://www.w3.org/1999/xlink" x="0px" y="0px"
	 width="60px" height="60px" viewBox="0 0 60 60" enable-background="new 0 0 60 60" xml:space="preserve">
<g>
	<path fill="#0072BC" d="M5.68,59.576c-1.908,0-3.46-1.552-3.46-3.46V34.055c0-1.908,1.552-3.46,3.46-3.46s3.46,1.552,3.46,3.46
		v22.062C9.14,58.024,7.587,59.576,5.68,59.576z M5.68,32.36c-0.935,0-1.695,0.761-1.695,1.694v22.062
		c0,0.935,0.76,1.694,1.695,1.694s1.695-0.76,1.695-1.694V34.055C7.375,33.121,6.614,32.36,5.68,32.36z"/>
</g>
<g>
	<path fill="#0072BC" d="M5.68,32.36c-0.487,0-0.883-0.396-0.883-0.883V12.026c0-0.487,0.396-0.882,0.883-0.882
		s0.883,0.395,0.883,0.882v19.451C6.562,31.965,6.167,32.36,5.68,32.36z"/>
</g>
<g>
	<path fill="#0072BC" d="M7.774,13.654c-1.064,0-1.995-0.324-2.674-1.002c-1.969-1.97-0.955-6.071,2.311-9.336
		c3.265-3.267,7.366-4.281,9.336-2.312c1.97,1.969,0.955,6.071-2.311,9.336C12.297,12.48,9.797,13.654,7.774,13.654z M14.07,1.769
		c-1.441,0-3.518,0.902-5.41,2.794c-2.696,2.697-3.382,5.77-2.312,6.84c1.071,1.071,4.143,0.385,6.84-2.311
		c2.696-2.697,3.382-5.77,2.311-6.84C15.181,1.932,14.683,1.769,14.07,1.769z"/>
</g>
<g>
	<path fill="#0072BC" d="M44.088,60c-2.973,0-6.207-7.321-8.633-14.378c-2.394,6.973-5.584,14.196-8.533,14.196
		c-5.396,0-12.458-25.338-13.693-34.106c-0.202-1.433-0.305-2.643-0.305-3.594c0-5.811,2.711-11.203,7.076-14.072
		c3.593-2.364,8.079-2.736,11.915-1.017c2.299,1.032,5.004,1.046,7.42,0.042c1.51-0.627,3.096-0.945,4.711-0.945
		C51.74,6.126,58,13.381,58,22.3c0,4.158-2.029,13.349-4.826,21.851C49.716,54.668,46.659,60,44.088,60z M35.453,41.938
		c0.384,0,0.723,0.247,0.84,0.612c3.705,11.508,6.691,15.684,7.795,15.684c1.044,0,3.879-3.896,7.409-14.635
		c2.745-8.348,4.737-17.306,4.737-21.3c0-7.945-5.469-14.409-12.189-14.409c-1.383,0-2.739,0.272-4.033,0.81
		c-2.864,1.192-6.078,1.169-8.82-0.061c-3.29-1.475-7.127-1.156-10.222,0.88c-3.874,2.547-6.28,7.374-6.28,12.598
		c0,0.87,0.096,1.996,0.287,3.349c0.766,5.437,2.937,13.711,5.402,20.588c3.401,9.491,5.767,11.999,6.543,11.999
		c1.092,0,4.041-4.129,7.691-15.502C34.73,42.187,35.069,41.938,35.453,41.938L35.453,41.938z"/>
</g>
<g>
	<path fill="#0072BC" d="M23.584,23.851c-2.56,0-4.642-2.082-4.642-4.641c0-2.559,2.082-4.641,4.642-4.641s4.641,2.082,4.641,4.641
		C28.225,21.77,26.144,23.851,23.584,23.851z M23.584,16.334c-1.586,0-2.876,1.291-2.876,2.876c0,1.586,1.29,2.876,2.876,2.876
		c1.586,0,2.876-1.29,2.876-2.876C26.46,17.625,25.17,16.334,23.584,16.334z"/>
</g>
</svg>
