<?xml version="1.0" encoding="utf-8"?>
<!-- Generator: Adobe Illustrator 15.0.0, SVG Export Plug-In . SVG Version: 6.00 Build 0)  -->
<!DOCTYPE svg PUBLIC "-//W3C//DTD SVG 1.1//EN" "http://www.w3.org/Graphics/SVG/1.1/DTD/svg11.dtd">
<svg version="1.1" id="Layer_1" xmlns="http://www.w3.org/2000/svg" xmlns:xlink="http://www.w3.org/1999/xlink" x="0px" y="0px"
	 width="60px" height="60px" viewBox="0 0 60 60" enable-background="new 0 0 60 60" xml:space="preserve">
<g>
	<path fill="#0072BC" d="M35.506,10.903H25.354c-0.601,0-1.088-0.487-1.088-1.088V3.412c0-0.601,0.487-1.088,1.088-1.088h10.152
		c0.602,0,1.088,0.487,1.088,1.088v6.403C36.594,10.416,36.107,10.903,35.506,10.903z M26.442,8.728h7.976V4.5h-7.976V8.728z"/>
</g>
<g>
	<path fill="#0072BC" d="M35.506,17.307H25.354c-0.601,0-1.088-0.487-1.088-1.088V9.815c0-0.601,0.487-1.088,1.088-1.088h10.152
		c0.602,0,1.088,0.487,1.088,1.088v6.403C36.594,16.819,36.107,17.307,35.506,17.307z M26.442,15.131h7.976v-4.228h-7.976V15.131z"
		/>
</g>
<g>
	<path fill="#0072BC" d="M35.506,23.71H25.354c-0.601,0-1.088-0.487-1.088-1.088v-6.403c0-0.601,0.487-1.088,1.088-1.088h10.152
		c0.602,0,1.088,0.487,1.088,1.088v6.403C36.594,23.223,36.107,23.71,35.506,23.71z M26.442,21.534h7.976v-4.228h-7.976V21.534z"/>
</g>
<g>
	<path fill="#0072BC" d="M35.506,30.113H25.354c-0.601,0-1.088-0.487-1.088-1.088v-6.403c0-0.601,0.487-1.088,1.088-1.088h10.152
		c0.602,0,1.088,0.487,1.088,1.088v6.403C36.594,29.626,36.107,30.113,35.506,30.113z M26.442,27.938h7.976V23.71h-7.976V27.938z"/>
</g>
<g>
	<path fill="#0072BC" d="M35.506,36.518H25.354c-0.601,0-1.088-0.486-1.088-1.088v-6.404c0-0.601,0.487-1.088,1.088-1.088h10.152
		c0.602,0,1.088,0.487,1.088,1.088v6.404C36.594,36.031,36.107,36.518,35.506,36.518z M26.442,34.342h7.976v-4.229h-7.976V34.342z"
		/>
</g>
<g>
	<path fill="#0072BC" d="M35.506,42.921H25.354c-0.601,0-1.088-0.487-1.088-1.089V35.43c0-0.6,0.487-1.088,1.088-1.088h10.152
		c0.602,0,1.088,0.488,1.088,1.088v6.402C36.594,42.434,36.107,42.921,35.506,42.921z M26.442,40.744h7.976v-4.227h-7.976V40.744z"
		/>
</g>
<g>
	<g>
		<path fill="#0072BC" d="M15.309,15.102c-7.879,0-14.429-2.816-15.234-6.551c-0.22-1.016,0.048-2.028,0.773-2.926
			c2.002-2.481,7.678-4.084,14.461-4.084c0.601,0,1.088,0.487,1.088,1.088s-0.487,1.088-1.088,1.088
			c-6.957,0-11.496,1.698-12.769,3.274c-0.408,0.505-0.389,0.87-0.339,1.101c0.493,2.286,5.998,4.834,13.107,4.834
			c3.354,0,6.733-0.604,9.27-1.656c0.556-0.231,1.191,0.033,1.422,0.588c0.23,0.555-0.033,1.192-0.588,1.422
			C22.58,14.455,18.992,15.102,15.309,15.102z"/>
	</g>
	<g>
		<path fill="#0072BC" d="M15.309,24.109c-2.618,0-5.197-0.424-7.458-1.225c-3.432-1.216-5.669-3.158-6.138-5.326
			c-0.507-2.342,1.297-4.426,4.95-5.716c0.566-0.201,1.188,0.098,1.388,0.663c0.2,0.566-0.097,1.188-0.664,1.388
			c-1.905,0.673-3.837,1.868-3.548,3.206c0.296,1.373,2.112,2.805,4.738,3.734c2.031,0.72,4.358,1.1,6.731,1.1
			c3.432,0,6.842-0.826,9.121-2.209c0.515-0.311,1.183-0.148,1.495,0.365c0.312,0.514,0.148,1.183-0.365,1.495
			C22.915,23.189,19.179,24.109,15.309,24.109z"/>
	</g>
	<g>
		<path fill="#0072BC" d="M15.309,33.115c-2.297,0-4.569-0.438-6.57-1.266c-2.964-1.226-4.928-3.152-5.388-5.285
			c-0.419-1.945,0.68-3.803,3.018-5.099C6.803,21.225,7.285,21,7.8,20.8c0.561-0.22,1.191,0.059,1.409,0.618
			c0.218,0.561-0.059,1.191-0.618,1.409c-0.424,0.166-0.817,0.348-1.167,0.542c-0.847,0.469-2.224,1.448-1.946,2.737
			c0.302,1.403,1.833,2.799,4.093,3.734c1.74,0.719,3.724,1.1,5.738,1.1c3.572,0,7.143-1.269,8.884-3.156
			c0.409-0.441,1.096-0.468,1.537-0.062c0.441,0.407,0.469,1.096,0.062,1.538C23.63,31.602,19.515,33.115,15.309,33.115z"/>
	</g>
	<g>
		<path fill="#0072BC" d="M15.309,42.122c-4.994,0-9.526-2.879-10.32-6.552c-0.493-2.281,0.893-4.42,3.706-5.72
			c0.545-0.254,1.192-0.014,1.444,0.53c0.252,0.546,0.015,1.192-0.531,1.445c-0.875,0.405-2.871,1.534-2.492,3.286
			c0.566,2.621,4.318,4.834,8.193,4.834c4.09,0,8.456-2.306,8.982-4.744c0.127-0.588,0.707-0.963,1.293-0.835
			c0.587,0.128,0.96,0.706,0.833,1.294C25.583,39.525,20,42.122,15.309,42.122z"/>
	</g>
</g>
<g>
	<g>
		<path fill="#0072BC" d="M44.69,15.12c-3.386,0-6.749-0.559-9.471-1.573c-0.563-0.21-0.851-0.836-0.641-1.399
			s0.837-0.849,1.399-0.64c2.486,0.926,5.579,1.436,8.712,1.436c7.109,0,12.614-2.547,13.106-4.833
			c0.051-0.23,0.07-0.595-0.338-1.101c-1.273-1.576-5.812-3.274-12.769-3.274c-0.601,0-1.088-0.487-1.088-1.088
			S44.09,1.56,44.69,1.56c6.783,0,12.46,1.603,14.462,4.083c0.725,0.898,0.992,1.91,0.773,2.926
			C59.119,12.304,52.57,15.12,44.69,15.12z"/>
	</g>
	<g>
		<path fill="#0072BC" d="M44.69,24.126c-3.568,0-7.103-0.805-9.698-2.209c-0.529-0.286-0.727-0.946-0.44-1.475
			c0.285-0.529,0.945-0.727,1.474-0.439c2.289,1.237,5.447,1.947,8.665,1.947c6.144,0,10.976-2.547,11.47-4.834
			c0.293-1.354-1.685-2.413-2.549-2.805c-0.296-0.135-0.613-0.262-0.947-0.382c-0.566-0.203-0.86-0.825-0.658-1.391
			c0.202-0.565,0.826-0.858,1.391-0.657c0.39,0.14,0.765,0.291,1.115,0.449c2.841,1.291,4.217,3.203,3.774,5.246
			C57.493,21.249,51.521,24.126,44.69,24.126z"/>
	</g>
	<g>
		<path fill="#0072BC" d="M44.69,33.134c-3.836,0-7.634-1.264-9.911-3.296c-0.447-0.4-0.487-1.088-0.088-1.536
			c0.4-0.448,1.089-0.487,1.537-0.087c1.895,1.692,5.137,2.744,8.462,2.744c5.257,0,9.327-2.5,9.831-4.834
			c0.156-0.726-0.184-1.436-1.009-2.111c-0.538-0.44-1.246-0.833-2.104-1.167c-0.56-0.218-0.837-0.849-0.618-1.409
			c0.218-0.56,0.848-0.838,1.408-0.618c1.07,0.417,1.976,0.925,2.691,1.51c1.467,1.2,2.091,2.711,1.758,4.255
			C55.855,30.256,50.604,33.134,44.69,33.134z"/>
	</g>
	<g>
		<path fill="#0072BC" d="M44.69,42.14c-4.993,0-9.526-2.878-10.319-6.551c-0.127-0.587,0.246-1.166,0.834-1.292
			c0.586-0.131,1.166,0.246,1.292,0.833c0.565,2.62,4.317,4.835,8.193,4.835s7.628-2.215,8.193-4.835
			c0.269-1.247-0.665-2.175-1.496-2.732c-0.298-0.2-0.635-0.387-1.002-0.558c-0.546-0.252-0.784-0.897-0.532-1.442
			c0.252-0.546,0.896-0.786,1.443-0.533c0.473,0.218,0.911,0.462,1.305,0.727c1.936,1.3,2.813,3.121,2.408,4.997
			C54.217,39.262,49.684,42.14,44.69,42.14z"/>
	</g>
</g>
<g>
	<path fill="#0072BC" d="M57.867,50.531H20.215c-0.601,0-1.088-0.487-1.088-1.088s0.487-1.088,1.088-1.088h37.652
		c0.601,0,1.088,0.487,1.088,1.088S58.468,50.531,57.867,50.531z"/>
</g>
<g>
	<path fill="#0072BC" d="M57.867,55.005H20.215c-0.601,0-1.088-0.487-1.088-1.088s0.487-1.088,1.088-1.088h37.652
		c0.601,0,1.088,0.487,1.088,1.088S58.468,55.005,57.867,55.005z"/>
</g>
<g>
	<path fill="#0072BC" d="M57.867,59.479H20.215c-0.601,0-1.088-0.487-1.088-1.088s0.487-1.088,1.088-1.088h37.652
		c0.601,0,1.088,0.487,1.088,1.088S58.468,59.479,57.867,59.479z"/>
</g>
<g>
	<path fill="#0072BC" d="M13.042,59.602H3.85c-0.601,0-1.088-0.487-1.088-1.088v-9.191c0-0.601,0.487-1.088,1.088-1.088h9.191
		c0.601,0,1.088,0.487,1.088,1.088v9.191C14.129,59.114,13.643,59.602,13.042,59.602z M4.938,57.426h7.016V50.41H4.938V57.426z"/>
</g>
</svg>
