<?xml version="1.0" encoding="utf-8"?>
<!-- Generator: Adobe Illustrator 15.0.0, SVG Export Plug-In . SVG Version: 6.00 Build 0)  -->
<!DOCTYPE svg PUBLIC "-//W3C//DTD SVG 1.1//EN" "http://www.w3.org/Graphics/SVG/1.1/DTD/svg11.dtd">
<svg version="1.1" id="Layer_1" xmlns="http://www.w3.org/2000/svg" xmlns:xlink="http://www.w3.org/1999/xlink" x="0px" y="0px"
	 width="60px" height="60px" viewBox="0 0 60 60" enable-background="new 0 0 60 60" xml:space="preserve">
<g>
	<path fill="#0072BC" d="M31.66,49.805c-7.818,0.002-16.16-1.527-21.49-6.855c-6.066-6.066-6.602-15.402-1.193-20.812
		c2.634-2.634,6.257-3.95,10.211-3.712c2.136,0.13,4.227,0.709,6.162,1.683c-2.794-5.574-2.185-12.16,2.024-16.368
		c2.634-2.634,6.256-3.953,10.21-3.712c3.911,0.238,7.676,1.98,10.602,4.905c12.229,12.229,4.44,40.333,4.104,41.524
		c-0.082,0.288-0.307,0.514-0.596,0.596C51.023,47.242,41.782,49.805,31.66,49.805z M18.278,20.123
		c-3.134,0-5.979,1.133-8.081,3.234c-4.736,4.736-4.2,12.977,1.193,18.37c10.696,10.695,35.625,4.758,39.363,3.791
		c0.968-3.736,6.899-28.675-3.788-39.365c-2.627-2.626-5.994-4.19-9.484-4.402c-3.451-0.213-6.605,0.929-8.885,3.209
		c-4.736,4.736-4.201,12.977,1.193,18.37c0.168,0.169,0.253,0.39,0.253,0.61c0,0.22-0.084,0.442-0.253,0.61
		c-0.337,0.337-0.883,0.337-1.22,0c-2.626-2.626-5.995-4.19-9.484-4.402C18.813,20.132,18.544,20.123,18.278,20.123z M51.459,46.223
		h0.006H51.459z"/>
</g>
<g>
	<path fill="#0072BC" d="M2.766,60c-0.218,0-0.437-0.081-0.604-0.247c-0.341-0.333-0.346-0.88-0.013-1.221l7.824-7.978
		c0.228-0.232,0.566-0.318,0.876-0.221l7.744,2.439l-1.225-13.229c-0.029-0.312,0.113-0.615,0.371-0.791
		c0.258-0.178,0.592-0.201,0.871-0.062l7.455,3.689l-2.561-9.98c-0.079-0.307,0.018-0.633,0.251-0.85
		c0.235-0.215,0.567-0.283,0.868-0.18l9.74,3.383l-0.689-7.461c-0.027-0.288,0.092-0.57,0.316-0.751
		c0.223-0.182,0.523-0.239,0.801-0.152l9.936,3.116L39.23,16.85c-0.15-0.347-0.059-0.752,0.229-0.999
		c0.288-0.247,0.702-0.277,1.021-0.076l7.482,4.699l-1.979-5.325c-0.119-0.321-0.039-0.682,0.207-0.92L58.535,2.233
		c0.341-0.332,0.888-0.325,1.22,0.018c0.333,0.341,0.325,0.888-0.019,1.22L47.8,15.077l2.669,7.181
		c0.129,0.347,0.023,0.737-0.264,0.971s-0.691,0.258-1.004,0.062l-7.277-4.569l5.139,11.831c0.135,0.309,0.076,0.67-0.149,0.922
		c-0.228,0.25-0.578,0.346-0.899,0.246l-10.502-3.294l0.696,7.505c0.028,0.293-0.097,0.579-0.327,0.76
		c-0.23,0.182-0.538,0.232-0.814,0.137l-9.489-3.296l2.629,10.245c0.083,0.326-0.03,0.673-0.293,0.886
		c-0.262,0.212-0.625,0.252-0.926,0.103l-7.757-3.839l1.202,12.983c0.027,0.287-0.092,0.568-0.317,0.751
		c-0.225,0.182-0.525,0.237-0.802,0.151l-8.478-2.672l-7.453,7.603C3.213,59.914,2.989,60,2.766,60z"/>
</g>
</svg>
